<?xml version="1.0" standalone="no"?>
<!DOCTYPE svg PUBLIC "-//W3C//DTD SVG 20010904//EN"
 "http://www.w3.org/TR/2001/REC-SVG-20010904/DTD/svg10.dtd">
<svg version="1.0" xmlns="http://www.w3.org/2000/svg"
 width="184.000000pt" height="183.000000pt" viewBox="0 0 184.000000 183.000000"
 preserveAspectRatio="xMidYMid meet">

<g transform="translate(0.000000,183.000000) scale(0.100000,-0.100000)"
fill="#000000" stroke="none">
<path d="M780 1819 c-161 -25 -333 -104 -458 -213 -177 -152 -284 -354 -313
-589 -27 -219 39 -463 174 -642 52 -69 165 -180 174 -171 4 3 14 144 23 314
16 276 16 308 2 317 -8 6 -29 22 -46 37 l-31 27 2 238 c2 247 8 323 24 323 5
0 9 -80 9 -194 0 -182 6 -226 27 -194 4 7 9 96 11 198 2 102 7 189 11 193 9 9
21 -170 21 -305 0 -83 12 -118 30 -88 4 7 8 96 9 199 1 102 6 190 12 196 5 5
10 7 11 5 1 -3 4 -95 7 -205 5 -169 8 -200 21 -200 13 0 16 32 20 205 3 113 8
200 12 194 8 -12 28 -331 28 -451 0 -98 -13 -131 -65 -163 l-35 -22 5 -61 c3
-34 12 -197 21 -362 10 -206 19 -302 27 -307 7 -4 48 -21 93 -37 99 -36 184
-53 184 -37 0 6 9 119 20 251 l20 240 -22 15 c-63 41 -78 66 -78 127 0 32 5
99 10 148 5 50 19 200 30 334 12 139 27 258 35 277 19 46 56 62 89 40 14 -9
28 -26 30 -39 7 -33 26 -897 26 -1171 l0 -239 73 6 c39 3 106 16 147 29 l75
24 7 69 c4 39 14 212 23 385 l15 314 -54 56 c-124 125 -154 280 -86 439 27 62
95 127 143 136 79 15 157 -38 203 -137 26 -56 29 -74 29 -163 0 -90 -3 -106
-29 -159 -16 -32 -53 -83 -82 -112 -49 -48 -54 -57 -54 -96 0 -75 31 -643 36
-647 9 -10 118 76 180 141 110 117 181 244 221 397 35 132 37 315 5 446 -98
396 -440 675 -847 690 -60 2 -139 -1 -175 -6z"/>
</g>
</svg>
