<?xml version="1.0" encoding="UTF-8"?>
<svg version="1.1" xmlns="http://www.w3.org/2000/svg" width="189" height="189">
<path d="M0 0 C24.65186756 -0.64873336 48.60223482 8.46670257 66.6875 25.125 C67.30496094 25.66253906 67.92242187 26.20007813 68.55859375 26.75390625 C85.03898814 41.9402281 95.07111775 64.651335 96.0625 86.82421875 C96.71332194 111.90459125 91.97613838 133.41699097 75.6875 153.125 C75.01203125 153.96289062 74.3365625 154.80078125 73.640625 155.6640625 C57.56594786 174.61340818 34.7592801 185.52017772 10.2265625 187.84765625 C-13.98786006 189.74525449 -38.90503109 182.16701211 -57.5703125 166.43359375 C-76.28597782 150.06587889 -89.00482915 127.42383268 -91.1875 102.4140625 C-92.65429592 75.55336215 -84.66452894 51.20289122 -66.875 30.9375 C-48.92370029 11.60069729 -26.34709784 1.42416745 0 0 Z M-62.0625 31.4375 C-80.04331527 50.48648251 -86.89243722 74.29628223 -86.59375 99.91015625 C-85.87422231 123.51426203 -74.32050521 145.12201328 -57.3125 161.125 C-54.63405032 162.9144918 -54.63405032 162.9144918 -52.3125 164.125 C-51.61842187 158.23605038 -51.08703276 152.38160287 -50.77734375 146.4609375 C-50.73436661 145.66579742 -50.69138947 144.87065735 -50.64710999 144.05142212 C-50.55760016 142.37924136 -50.46943583 140.70698808 -50.38256836 139.03466797 C-50.25139822 136.52673363 -50.1132599 134.01924925 -49.97460938 131.51171875 C-49.75608165 127.4819582 -49.57463133 123.45176072 -49.41375732 119.41931152 C-49.3149912 117.18144607 -49.18013719 114.94773219 -49.04345703 112.71191406 C-48.98663839 111.36271166 -48.93167974 110.01342918 -48.87890625 108.6640625 C-48.7871814 106.90763428 -48.7871814 106.90763428 -48.69360352 105.11572266 C-49.03460899 101.83593943 -49.03460899 101.83593943 -52.22241211 99.86865234 C-53.24214111 99.29324707 -54.26187012 98.7178418 -55.3125 98.125 C-62.19950439 89.17189429 -57.91812465 70.11924194 -57.3125 59.3125 C-57.2158244 57.54103314 -57.11946803 55.76954882 -57.0234375 53.99804688 C-56.79013154 49.70682153 -56.55252993 45.41585427 -56.3125 41.125 C-56.28744385 42.23536621 -56.2623877 43.34573242 -56.23657227 44.48974609 C-56.14255085 48.60103319 -56.04231743 52.71214923 -55.94018555 56.82324219 C-55.8968167 58.60412603 -55.85514306 60.38505198 -55.81518555 62.16601562 C-55.7575301 64.72278548 -55.6938223 67.27934298 -55.62890625 69.8359375 C-55.61219376 70.63494476 -55.59548126 71.43395203 -55.57826233 72.25717163 C-55.55857009 76.32306368 -55.55857009 76.32306368 -54.3125 80.125 C-53.3225 79.795 -52.3325 79.465 -51.3125 79.125 C-50.6525 66.255 -49.9925 53.385 -49.3125 40.125 C-48.875 59 -48.875 59 -48.74438477 64.95654297 C-48.70626792 66.51010042 -48.66779931 68.06364929 -48.62890625 69.6171875 C-48.61243042 70.42744385 -48.59595459 71.2377002 -48.57897949 72.07250977 C-48.57199431 76.23272875 -48.57199431 76.23272875 -47.3125 80.125 C-46.3225 79.795 -45.3325 79.465 -44.3125 79.125 C-43.07886652 66.15872469 -42.7655886 53.13636438 -42.3125 40.125 C-42.28744385 41.05771729 -42.2623877 41.99043457 -42.23657227 42.95141602 C-42.14097932 46.43849916 -42.04177541 49.92544188 -41.94018555 53.41235352 C-41.89708874 54.91654499 -41.85539793 56.42077748 -41.81518555 57.92504883 C-41.75686543 60.09729326 -41.69335516 62.26933602 -41.62890625 64.44140625 C-41.57391968 66.39735718 -41.57391968 66.39735718 -41.51782227 68.39282227 C-41.31703775 72.04251656 -40.88584248 75.51967558 -40.3125 79.125 C-39.3225 79.455 -38.3325 79.785 -37.3125 80.125 C-36.22455498 75.73933929 -36.18352686 71.46917235 -36.21484375 66.98046875 C-36.21696617 65.8257885 -36.21696617 65.8257885 -36.21913147 64.64778137 C-36.22470394 62.20264712 -36.23725129 59.75760632 -36.25 57.3125 C-36.25501856 55.64908987 -36.25958085 53.9856783 -36.26367188 52.32226562 C-36.27466434 48.25647472 -36.2919099 44.19075317 -36.3125 40.125 C-34.21627476 42.22122524 -34.911344 46.68521585 -34.77734375 49.5859375 C-34.73436661 50.44627594 -34.69138947 51.30661438 -34.64710999 52.19302368 C-34.55667492 54.02391754 -34.46856668 55.85492754 -34.38256836 57.68603516 C-34.2521786 60.45375596 -34.11403821 63.22100276 -33.97460938 65.98828125 C-32.63685452 93.10161784 -32.63685452 93.10161784 -36.3125 98.125 C-37.33150391 98.68268066 -38.35050781 99.24036133 -39.40039062 99.81494141 C-42.64289887 101.87034432 -42.64289887 101.87034432 -42.95117188 105.48193359 C-42.92685607 106.87171003 -42.86732222 108.26111584 -42.78125 109.6484375 C-42.75695923 110.42303314 -42.73266846 111.19762878 -42.7076416 111.99569702 C-42.61054371 114.70805002 -42.46311923 117.41510909 -42.3125 120.125 C-42.21029149 122.27112819 -42.10876102 124.41728874 -42.0078125 126.56347656 C-41.65799079 133.62868877 -41.23787273 140.68900308 -40.8125 147.75 C-40.66749045 150.22132615 -40.52295589 152.69268021 -40.37890625 155.1640625 C-40.02890357 161.15137402 -39.67307491 167.13831634 -39.3125 173.125 C-37.722243 173.93305837 -36.13047819 174.7381498 -34.53808594 175.54199219 C-33.65183533 175.99064636 -32.76558472 176.43930054 -31.85247803 176.90155029 C-28.82204108 178.36124292 -25.78840194 179.42809346 -22.5625 180.375 C-21.51578125 180.68953125 -20.4690625 181.0040625 -19.390625 181.328125 C-16.36531234 182.11132777 -13.41469696 182.74402844 -10.3125 183.125 C-8.801479 181.613979 -9.01408253 180.15971769 -8.81591797 178.05175781 C-8.7326828 177.18705872 -8.64944763 176.32235962 -8.56369019 175.43145752 C-8.4782193 174.48985779 -8.39274841 173.54825806 -8.3046875 172.578125 C-8.17007614 171.13309601 -8.17007614 171.13309601 -8.03274536 169.65887451 C-7.84388572 167.61459344 -7.65742383 165.57008968 -7.47314453 163.52539062 C-7.18990112 160.40148213 -6.8942307 157.27891746 -6.59765625 154.15625 C-6.41590419 152.17194469 -6.23489074 150.18757156 -6.0546875 148.203125 C-5.96516815 147.26962219 -5.8756488 146.33611938 -5.78341675 145.37432861 C-5.13151172 139.16972604 -5.13151172 139.16972604 -6.3125 133.125 C-9.2195643 130.96473235 -9.2195643 130.96473235 -12.3125 129.125 C-14.71496114 125.52130829 -14.62851106 122.95382811 -14.58203125 118.7890625 C-14.57702103 118.0129361 -14.5720108 117.23680969 -14.56684875 116.43716431 C-14.38448674 105.07176587 -13.33190273 93.74384446 -12.34106445 82.42626953 C-11.9977449 78.47403971 -11.67508453 74.52045847 -11.35351562 70.56640625 C-11.13665802 68.03114351 -10.91860226 65.49598291 -10.69921875 62.9609375 C-10.60533371 61.79001556 -10.51144867 60.61909363 -10.41471863 59.41268921 C-9.10123743 44.91373743 -9.10123743 44.91373743 -4.3125 40.125 C-0.6875 40.5 -0.6875 40.5 2.6875 41.125 C3.65628549 51.66642079 3.97683346 62.17157266 4.1875 72.75 C4.21685135 74.13436249 4.21685135 74.13436249 4.24679565 75.54669189 C5.00143877 111.40065794 5.29331642 147.26565604 5.6875 183.125 C7.26450398 183.14690891 8.84159758 183.16241632 10.41870117 183.17529297 C11.29693039 183.1846286 12.17515961 183.19396423 13.08000183 183.20358276 C16.88417157 183.08893564 20.34765843 182.26075596 24 181.25 C24.67611328 181.07597656 25.35222656 180.90195313 26.04882812 180.72265625 C29.71521494 179.75687631 33.18459548 178.56318897 36.6875 177.125 C37.21112176 168.3626486 37.73282638 159.60018574 38.25210571 150.83757591 C38.49330531 146.76845115 38.73515705 142.69936736 38.97851562 138.63037109 C39.21348608 134.70121838 39.44672198 130.77196615 39.67877197 126.84263992 C39.76746263 125.3459572 39.8567709 123.84931094 39.94671631 122.35270309 C40.07289962 120.25134282 40.19685664 118.14986188 40.3203125 116.04833984 C40.42690186 114.2563063 40.42690186 114.2563063 40.53564453 112.42807007 C41.15510026 106.47699232 41.15510026 106.47699232 39.3671875 101.0703125 C38.77164063 100.46960938 38.17609375 99.86890625 37.5625 99.25 C28.68905436 89.81971871 23.27872724 81.23202933 23.4765625 67.9375 C24.14170975 59.06887004 26.52603124 50.73254795 32.6875 44.125 C36.70816574 40.91864631 40.25356165 39.80761662 45.375 40.25 C48.67949245 40.82543748 51.75688776 41.4376778 54.6875 43.125 C55.3900364 44.43978699 56.05194472 45.77655953 56.6875 47.125 C57.29078125 48.10146484 57.29078125 48.10146484 57.90625 49.09765625 C63.70235073 58.55166201 64.6357064 68.29355399 62.6875 79.125 C60.51055972 87.95078799 55.04596096 94.72514656 48.06921387 100.45378113 C46.19167528 102.7247129 46.36187865 104.0755808 46.45898438 106.9934082 C46.48629639 107.97564362 46.5136084 108.95787903 46.54174805 109.96987915 C46.58984619 111.01106903 46.63794434 112.05225891 46.6875 113.125 C46.72979736 114.15015717 46.77209473 115.17531433 46.81567383 116.23153687 C46.96950824 119.56605079 47.1529687 122.89787135 47.34375 126.23046875 C47.4436322 128.03829582 47.4436322 128.03829582 47.54553223 129.88264465 C47.75668734 133.69276049 47.97202413 137.50262633 48.1875 141.3125 C48.33230883 143.91209393 48.47684278 146.51170318 48.62109375 149.11132812 C48.9733851 155.4493994 49.32910039 161.78727135 49.6875 168.125 C50.3475 168.455 51.0075 168.785 51.6875 169.125 C72.86416402 154.04106334 85.7484391 135.03030925 91.26953125 109.42578125 C94.59552334 83.15976898 88.97079658 59.14181302 72.6875 38.125 C57.83063063 19.74939842 37.26483369 7.89838511 13.80419922 4.90185547 C-15.13656346 1.91125725 -40.85514256 11.70287572 -62.0625 31.4375 Z " fill="#000000" transform="translate(92.3125,-0.125)"/>
</svg>
